<svg xmlns="http://www.w3.org/2000/svg" xmlns:xlink="http://www.w3.org/1999/xlink" width="1200" zoomAndPan="magnify" viewBox="0 0 900 359.999987" height="480" preserveAspectRatio="xMidYMid meet" version="1.2"><defs><clipPath id="1e19cbcedf"><path d="M 36 91.863281 L 207.75 91.863281 L 207.75 261.363281 L 36 261.363281 Z M 36 91.863281 "/></clipPath></defs><g id="6483c9c5ea"><g clip-rule="nonzero" clip-path="url(#1e19cbcedf)"><path style=" stroke:none;fill-rule:evenodd;fill:#5170ff;fill-opacity:1;" d="M 58.609375 168.6875 L 58.609375 154.273438 L 121.875 117.734375 L 185.140625 154.273438 L 185.140625 238.59375 L 128.511719 238.59375 L 128.511719 168.6875 Z M 121.875 91.863281 L 36.128906 141.355469 L 36.128906 178.644531 L 118.519531 261.035156 L 207.621094 261.035156 L 207.621094 141.355469 Z M 121.875 91.863281 "/></g><g style="fill:#efeeeb;fill-opacity:1;"><g transform="translate(230.177811, 192.7257)"><path style="stroke:none" d="M 3.578125 -38.125 C 3.578125 -45.632812 5.203125 -52.328125 8.453125 -58.203125 C 11.703125 -64.085938 16.226562 -68.671875 22.03125 -71.953125 C 27.84375 -75.242188 34.429688 -76.890625 41.796875 -76.890625 C 50.828125 -76.890625 58.550781 -74.503906 64.96875 -69.734375 C 71.394531 -64.972656 75.691406 -58.476562 77.859375 -50.25 L 57.5 -50.25 C 55.988281 -53.425781 53.84375 -55.84375 51.0625 -57.5 C 48.28125 -59.164062 45.125 -60 41.59375 -60 C 35.882812 -60 31.257812 -58.007812 27.71875 -54.03125 C 24.1875 -50.0625 22.421875 -44.757812 22.421875 -38.125 C 22.421875 -31.476562 24.1875 -26.171875 27.71875 -22.203125 C 31.257812 -18.234375 35.882812 -16.25 41.59375 -16.25 C 45.125 -16.25 48.28125 -17.078125 51.0625 -18.734375 C 53.84375 -20.390625 55.988281 -22.804688 57.5 -25.984375 L 77.859375 -25.984375 C 75.691406 -17.753906 71.394531 -11.273438 64.96875 -6.546875 C 58.550781 -1.816406 50.828125 0.546875 41.796875 0.546875 C 34.429688 0.546875 27.84375 -1.09375 22.03125 -4.375 C 16.226562 -7.664062 11.703125 -12.234375 8.453125 -18.078125 C 5.203125 -23.929688 3.578125 -30.613281 3.578125 -38.125 Z M 3.578125 -38.125 "/></g></g><g style="fill:#efeeeb;fill-opacity:1;"><g transform="translate(312.700259, 192.7257)"><path style="stroke:none" d="M 63.671875 -31.1875 C 63.671875 -29.457031 63.566406 -27.65625 63.359375 -25.78125 L 21.4375 -25.78125 C 21.726562 -22.019531 22.9375 -19.144531 25.0625 -17.15625 C 27.195312 -15.175781 29.816406 -14.1875 32.921875 -14.1875 C 37.546875 -14.1875 40.757812 -16.132812 42.5625 -20.03125 L 62.265625 -20.03125 C 61.253906 -16.0625 59.429688 -12.488281 56.796875 -9.3125 C 54.160156 -6.132812 50.859375 -3.644531 46.890625 -1.84375 C 42.921875 -0.0390625 38.484375 0.859375 33.578125 0.859375 C 27.648438 0.859375 22.375 -0.398438 17.75 -2.921875 C 13.132812 -5.453125 9.523438 -9.0625 6.921875 -13.75 C 4.328125 -18.445312 3.03125 -23.9375 3.03125 -30.21875 C 3.03125 -36.5 4.3125 -41.984375 6.875 -46.671875 C 9.4375 -51.367188 13.023438 -54.976562 17.640625 -57.5 C 22.265625 -60.03125 27.578125 -61.296875 33.578125 -61.296875 C 39.421875 -61.296875 44.613281 -60.066406 49.15625 -57.609375 C 53.707031 -55.160156 57.265625 -51.660156 59.828125 -47.109375 C 62.390625 -42.554688 63.671875 -37.25 63.671875 -31.1875 Z M 44.734375 -36.0625 C 44.734375 -39.238281 43.648438 -41.765625 41.484375 -43.640625 C 39.316406 -45.515625 36.609375 -46.453125 33.359375 -46.453125 C 30.253906 -46.453125 27.632812 -45.550781 25.5 -43.75 C 23.375 -41.945312 22.054688 -39.382812 21.546875 -36.0625 Z M 44.734375 -36.0625 "/></g></g><g style="fill:#efeeeb;fill-opacity:1;"><g transform="translate(379.411301, 192.7257)"><path style="stroke:none" d="M 68.4375 -60.421875 L 30.546875 28.703125 L 10.609375 28.703125 L 24.46875 -2.0625 L -0.109375 -60.421875 L 20.578125 -60.421875 L 34.546875 -22.640625 L 48.40625 -60.421875 Z M 68.4375 -60.421875 "/></g></g><g style="fill:#efeeeb;fill-opacity:1;"><g transform="translate(447.855112, 192.7257)"><path style="stroke:none" d="M 25.234375 -61.1875 L 25.234375 -45.8125 L 50.03125 -45.8125 L 50.03125 -31.515625 L 25.234375 -31.515625 L 25.234375 -14.84375 L 53.28125 -14.84375 L 53.28125 0 L 6.71875 0 L 6.71875 -76.03125 L 53.28125 -76.03125 L 53.28125 -61.1875 Z M 25.234375 -61.1875 "/></g></g><g style="fill:#efeeeb;fill-opacity:1;"><g transform="translate(506.443866, 192.7257)"><path style="stroke:none" d="M 31.296875 0.859375 C 26.023438 0.859375 21.332031 -0.0390625 17.21875 -1.84375 C 13.101562 -3.644531 9.851562 -6.113281 7.46875 -9.25 C 5.09375 -12.394531 3.757812 -15.914062 3.46875 -19.8125 L 21.765625 -19.8125 C 21.984375 -17.71875 22.957031 -16.019531 24.6875 -14.71875 C 26.425781 -13.425781 28.554688 -12.78125 31.078125 -12.78125 C 33.390625 -12.78125 35.175781 -13.226562 36.4375 -14.125 C 37.707031 -15.03125 38.34375 -16.207031 38.34375 -17.65625 C 38.34375 -19.382812 37.4375 -20.664062 35.625 -21.5 C 33.820312 -22.332031 30.898438 -23.253906 26.859375 -24.265625 C 22.523438 -25.273438 18.914062 -26.335938 16.03125 -27.453125 C 13.144531 -28.566406 10.65625 -30.332031 8.5625 -32.75 C 6.46875 -35.175781 5.421875 -38.445312 5.421875 -42.5625 C 5.421875 -46.03125 6.375 -49.1875 8.28125 -52.03125 C 10.195312 -54.882812 13.015625 -57.140625 16.734375 -58.796875 C 20.453125 -60.460938 24.875 -61.296875 30 -61.296875 C 37.582031 -61.296875 43.554688 -59.414062 47.921875 -55.65625 C 52.285156 -51.90625 54.796875 -46.925781 55.453125 -40.71875 L 38.34375 -40.71875 C 38.050781 -42.8125 37.128906 -44.472656 35.578125 -45.703125 C 34.023438 -46.929688 31.984375 -47.546875 29.453125 -47.546875 C 27.285156 -47.546875 25.625 -47.128906 24.46875 -46.296875 C 23.320312 -45.460938 22.75 -44.328125 22.75 -42.890625 C 22.75 -41.148438 23.664062 -39.847656 25.5 -38.984375 C 27.34375 -38.117188 30.210938 -37.253906 34.109375 -36.390625 C 38.585938 -35.234375 42.234375 -34.09375 45.046875 -32.96875 C 47.867188 -31.851562 50.34375 -30.050781 52.46875 -27.5625 C 54.601562 -25.070312 55.703125 -21.734375 55.765625 -17.546875 C 55.765625 -14.003906 54.769531 -10.84375 52.78125 -8.0625 C 50.800781 -5.289062 47.953125 -3.109375 44.234375 -1.515625 C 40.515625 0.0664062 36.203125 0.859375 31.296875 0.859375 Z M 31.296875 0.859375 "/></g></g><g style="fill:#efeeeb;fill-opacity:1;"><g transform="translate(566.873691, 192.7257)"><path style="stroke:none" d="M 40.390625 -15.703125 L 40.390625 0 L 30.96875 0 C 24.257812 0 19.023438 -1.640625 15.265625 -4.921875 C 11.515625 -8.210938 9.640625 -13.578125 9.640625 -21.015625 L 9.640625 -45.046875 L 2.28125 -45.046875 L 2.28125 -60.421875 L 9.640625 -60.421875 L 9.640625 -75.15625 L 28.15625 -75.15625 L 28.15625 -60.421875 L 40.28125 -60.421875 L 40.28125 -45.046875 L 28.15625 -45.046875 L 28.15625 -20.796875 C 28.15625 -18.984375 28.585938 -17.679688 29.453125 -16.890625 C 30.316406 -16.097656 31.757812 -15.703125 33.78125 -15.703125 Z M 40.390625 -15.703125 "/></g></g><g style="fill:#efeeeb;fill-opacity:1;"><g transform="translate(610.842339, 192.7257)"><path style="stroke:none" d="M 3.03125 -30.328125 C 3.03125 -36.535156 4.203125 -41.984375 6.546875 -46.671875 C 8.898438 -51.367188 12.097656 -54.976562 16.140625 -57.5 C 20.179688 -60.03125 24.691406 -61.296875 29.671875 -61.296875 C 33.929688 -61.296875 37.664062 -60.425781 40.875 -58.6875 C 44.09375 -56.957031 46.566406 -54.6875 48.296875 -51.875 L 48.296875 -60.421875 L 66.8125 -60.421875 L 66.8125 0 L 48.296875 0 L 48.296875 -8.5625 C 46.492188 -5.738281 43.984375 -3.460938 40.765625 -1.734375 C 37.554688 -0.00390625 33.820312 0.859375 29.5625 0.859375 C 24.65625 0.859375 20.179688 -0.421875 16.140625 -2.984375 C 12.097656 -5.546875 8.898438 -9.191406 6.546875 -13.921875 C 4.203125 -18.648438 3.03125 -24.117188 3.03125 -30.328125 Z M 48.296875 -30.21875 C 48.296875 -34.832031 47.015625 -38.472656 44.453125 -41.140625 C 41.890625 -43.816406 38.769531 -45.15625 35.09375 -45.15625 C 31.40625 -45.15625 28.28125 -43.835938 25.71875 -41.203125 C 23.15625 -38.566406 21.875 -34.941406 21.875 -30.328125 C 21.875 -25.703125 23.15625 -22.035156 25.71875 -19.328125 C 28.28125 -16.617188 31.40625 -15.265625 35.09375 -15.265625 C 38.769531 -15.265625 41.890625 -16.597656 44.453125 -19.265625 C 47.015625 -21.941406 48.296875 -25.59375 48.296875 -30.21875 Z M 48.296875 -30.21875 "/></g></g><g style="fill:#efeeeb;fill-opacity:1;"><g transform="translate(684.376099, 192.7257)"><path style="stroke:none" d="M 40.390625 -15.703125 L 40.390625 0 L 30.96875 0 C 24.257812 0 19.023438 -1.640625 15.265625 -4.921875 C 11.515625 -8.210938 9.640625 -13.578125 9.640625 -21.015625 L 9.640625 -45.046875 L 2.28125 -45.046875 L 2.28125 -60.421875 L 9.640625 -60.421875 L 9.640625 -75.15625 L 28.15625 -75.15625 L 28.15625 -60.421875 L 40.28125 -60.421875 L 40.28125 -45.046875 L 28.15625 -45.046875 L 28.15625 -20.796875 C 28.15625 -18.984375 28.585938 -17.679688 29.453125 -16.890625 C 30.316406 -16.097656 31.757812 -15.703125 33.78125 -15.703125 Z M 40.390625 -15.703125 "/></g></g><g style="fill:#efeeeb;fill-opacity:1;"><g transform="translate(728.344747, 192.7257)"><path style="stroke:none" d="M 63.671875 -31.1875 C 63.671875 -29.457031 63.566406 -27.65625 63.359375 -25.78125 L 21.4375 -25.78125 C 21.726562 -22.019531 22.9375 -19.144531 25.0625 -17.15625 C 27.195312 -15.175781 29.816406 -14.1875 32.921875 -14.1875 C 37.546875 -14.1875 40.757812 -16.132812 42.5625 -20.03125 L 62.265625 -20.03125 C 61.253906 -16.0625 59.429688 -12.488281 56.796875 -9.3125 C 54.160156 -6.132812 50.859375 -3.644531 46.890625 -1.84375 C 42.921875 -0.0390625 38.484375 0.859375 33.578125 0.859375 C 27.648438 0.859375 22.375 -0.398438 17.75 -2.921875 C 13.132812 -5.453125 9.523438 -9.0625 6.921875 -13.75 C 4.328125 -18.445312 3.03125 -23.9375 3.03125 -30.21875 C 3.03125 -36.5 4.3125 -41.984375 6.875 -46.671875 C 9.4375 -51.367188 13.023438 -54.976562 17.640625 -57.5 C 22.265625 -60.03125 27.578125 -61.296875 33.578125 -61.296875 C 39.421875 -61.296875 44.613281 -60.066406 49.15625 -57.609375 C 53.707031 -55.160156 57.265625 -51.660156 59.828125 -47.109375 C 62.390625 -42.554688 63.671875 -37.25 63.671875 -31.1875 Z M 44.734375 -36.0625 C 44.734375 -39.238281 43.648438 -41.765625 41.484375 -43.640625 C 39.316406 -45.515625 36.609375 -46.453125 33.359375 -46.453125 C 30.253906 -46.453125 27.632812 -45.550781 25.5 -43.75 C 23.375 -41.945312 22.054688 -39.382812 21.546875 -36.0625 Z M 44.734375 -36.0625 "/></g></g><g style="fill:#efeeeb;fill-opacity:1;"><g transform="translate(795.055819, 192.7257)"><path style="stroke:none" d="M 31.296875 0.859375 C 26.023438 0.859375 21.332031 -0.0390625 17.21875 -1.84375 C 13.101562 -3.644531 9.851562 -6.113281 7.46875 -9.25 C 5.09375 -12.394531 3.757812 -15.914062 3.46875 -19.8125 L 21.765625 -19.8125 C 21.984375 -17.71875 22.957031 -16.019531 24.6875 -14.71875 C 26.425781 -13.425781 28.554688 -12.78125 31.078125 -12.78125 C 33.390625 -12.78125 35.175781 -13.226562 36.4375 -14.125 C 37.707031 -15.03125 38.34375 -16.207031 38.34375 -17.65625 C 38.34375 -19.382812 37.4375 -20.664062 35.625 -21.5 C 33.820312 -22.332031 30.898438 -23.253906 26.859375 -24.265625 C 22.523438 -25.273438 18.914062 -26.335938 16.03125 -27.453125 C 13.144531 -28.566406 10.65625 -30.332031 8.5625 -32.75 C 6.46875 -35.175781 5.421875 -38.445312 5.421875 -42.5625 C 5.421875 -46.03125 6.375 -49.1875 8.28125 -52.03125 C 10.195312 -54.882812 13.015625 -57.140625 16.734375 -58.796875 C 20.453125 -60.460938 24.875 -61.296875 30 -61.296875 C 37.582031 -61.296875 43.554688 -59.414062 47.921875 -55.65625 C 52.285156 -51.90625 54.796875 -46.925781 55.453125 -40.71875 L 38.34375 -40.71875 C 38.050781 -42.8125 37.128906 -44.472656 35.578125 -45.703125 C 34.023438 -46.929688 31.984375 -47.546875 29.453125 -47.546875 C 27.285156 -47.546875 25.625 -47.128906 24.46875 -46.296875 C 23.320312 -45.460938 22.75 -44.328125 22.75 -42.890625 C 22.75 -41.148438 23.664062 -39.847656 25.5 -38.984375 C 27.34375 -38.117188 30.210938 -37.253906 34.109375 -36.390625 C 38.585938 -35.234375 42.234375 -34.09375 45.046875 -32.96875 C 47.867188 -31.851562 50.34375 -30.050781 52.46875 -27.5625 C 54.601562 -25.070312 55.703125 -21.734375 55.765625 -17.546875 C 55.765625 -14.003906 54.769531 -10.84375 52.78125 -8.0625 C 50.800781 -5.289062 47.953125 -3.109375 44.234375 -1.515625 C 40.515625 0.0664062 36.203125 0.859375 31.296875 0.859375 Z M 31.296875 0.859375 "/></g></g><g style="fill:#efeeeb;fill-opacity:1;"><g transform="translate(232.659697, 257.852268)"><path style="stroke:none" d="M 9.34375 -18.65625 C 10.144531 -19.882812 11.148438 -20.851562 12.359375 -21.5625 C 13.566406 -22.269531 14.90625 -22.625 16.375 -22.625 L 16.375 -15.375 L 14.484375 -15.375 C 12.773438 -15.375 11.488281 -15.003906 10.625 -14.265625 C 9.769531 -13.523438 9.34375 -12.234375 9.34375 -10.390625 L 9.34375 0 L 2.484375 0 L 2.484375 -22.390625 L 9.34375 -22.390625 Z M 9.34375 -18.65625 "/></g></g><g style="fill:#efeeeb;fill-opacity:1;"><g transform="translate(249.834362, 257.852268)"><path style="stroke:none" d="M 23.59375 -11.5625 C 23.59375 -10.914062 23.550781 -10.242188 23.46875 -9.546875 L 7.9375 -9.546875 C 8.050781 -8.160156 8.5 -7.097656 9.28125 -6.359375 C 10.070312 -5.617188 11.046875 -5.25 12.203125 -5.25 C 13.910156 -5.25 15.097656 -5.972656 15.765625 -7.421875 L 23.078125 -7.421875 C 22.703125 -5.953125 22.023438 -4.628906 21.046875 -3.453125 C 20.066406 -2.273438 18.84375 -1.347656 17.375 -0.671875 C 15.90625 -0.00390625 14.257812 0.328125 12.4375 0.328125 C 10.25 0.328125 8.296875 -0.140625 6.578125 -1.078125 C 4.867188 -2.015625 3.53125 -3.351562 2.5625 -5.09375 C 1.601562 -6.832031 1.125 -8.863281 1.125 -11.1875 C 1.125 -13.519531 1.597656 -15.554688 2.546875 -17.296875 C 3.492188 -19.035156 4.820312 -20.367188 6.53125 -21.296875 C 8.25 -22.234375 10.21875 -22.703125 12.4375 -22.703125 C 14.601562 -22.703125 16.53125 -22.25 18.21875 -21.34375 C 19.90625 -20.4375 21.222656 -19.140625 22.171875 -17.453125 C 23.117188 -15.765625 23.59375 -13.800781 23.59375 -11.5625 Z M 16.578125 -13.359375 C 16.578125 -14.535156 16.175781 -15.472656 15.375 -16.171875 C 14.570312 -16.867188 13.566406 -17.21875 12.359375 -17.21875 C 11.210938 -17.21875 10.242188 -16.878906 9.453125 -16.203125 C 8.660156 -15.535156 8.171875 -14.585938 7.984375 -13.359375 Z M 16.578125 -13.359375 "/></g></g><g style="fill:#efeeeb;fill-opacity:1;"><g transform="translate(274.553035, 257.852268)"><path style="stroke:none" d="M 1.125 -11.234375 C 1.125 -13.535156 1.554688 -15.554688 2.421875 -17.296875 C 3.296875 -19.035156 4.476562 -20.367188 5.96875 -21.296875 C 7.46875 -22.234375 9.144531 -22.703125 11 -22.703125 C 12.570312 -22.703125 13.953125 -22.378906 15.140625 -21.734375 C 16.335938 -21.097656 17.253906 -20.257812 17.890625 -19.21875 L 17.890625 -22.390625 L 24.75 -22.390625 L 24.75 0 L 17.890625 0 L 17.890625 -3.171875 C 17.222656 -2.128906 16.296875 -1.285156 15.109375 -0.640625 C 13.921875 0.00390625 12.535156 0.328125 10.953125 0.328125 C 9.128906 0.328125 7.46875 -0.144531 5.96875 -1.09375 C 4.476562 -2.050781 3.296875 -3.40625 2.421875 -5.15625 C 1.554688 -6.90625 1.125 -8.929688 1.125 -11.234375 Z M 17.890625 -11.1875 C 17.890625 -12.90625 17.414062 -14.257812 16.46875 -15.25 C 15.519531 -16.238281 14.363281 -16.734375 13 -16.734375 C 11.632812 -16.734375 10.476562 -16.242188 9.53125 -15.265625 C 8.582031 -14.285156 8.109375 -12.941406 8.109375 -11.234375 C 8.109375 -9.523438 8.582031 -8.164062 9.53125 -7.15625 C 10.476562 -6.15625 11.632812 -5.65625 13 -5.65625 C 14.363281 -5.65625 15.519531 -6.148438 16.46875 -7.140625 C 17.414062 -8.128906 17.890625 -9.476562 17.890625 -11.1875 Z M 17.890625 -11.1875 "/></g></g><g style="fill:#efeeeb;fill-opacity:1;"><g transform="translate(301.799753, 257.852268)"><path style="stroke:none" d="M 9.34375 -29.6875 L 9.34375 0 L 2.484375 0 L 2.484375 -29.6875 Z M 9.34375 -29.6875 "/></g></g><g style="fill:#efeeeb;fill-opacity:1;"><g transform="translate(313.637426, 257.852268)"><path style="stroke:none" d=""/></g></g><g style="fill:#efeeeb;fill-opacity:1;"><g transform="translate(322.144501, 257.852268)"><path style="stroke:none" d="M 23.59375 -11.5625 C 23.59375 -10.914062 23.550781 -10.242188 23.46875 -9.546875 L 7.9375 -9.546875 C 8.050781 -8.160156 8.5 -7.097656 9.28125 -6.359375 C 10.070312 -5.617188 11.046875 -5.25 12.203125 -5.25 C 13.910156 -5.25 15.097656 -5.972656 15.765625 -7.421875 L 23.078125 -7.421875 C 22.703125 -5.953125 22.023438 -4.628906 21.046875 -3.453125 C 20.066406 -2.273438 18.84375 -1.347656 17.375 -0.671875 C 15.90625 -0.00390625 14.257812 0.328125 12.4375 0.328125 C 10.25 0.328125 8.296875 -0.140625 6.578125 -1.078125 C 4.867188 -2.015625 3.53125 -3.351562 2.5625 -5.09375 C 1.601562 -6.832031 1.125 -8.863281 1.125 -11.1875 C 1.125 -13.519531 1.597656 -15.554688 2.546875 -17.296875 C 3.492188 -19.035156 4.820312 -20.367188 6.53125 -21.296875 C 8.25 -22.234375 10.21875 -22.703125 12.4375 -22.703125 C 14.601562 -22.703125 16.53125 -22.25 18.21875 -21.34375 C 19.90625 -20.4375 21.222656 -19.140625 22.171875 -17.453125 C 23.117188 -15.765625 23.59375 -13.800781 23.59375 -11.5625 Z M 16.578125 -13.359375 C 16.578125 -14.535156 16.175781 -15.472656 15.375 -16.171875 C 14.570312 -16.867188 13.566406 -17.21875 12.359375 -17.21875 C 11.210938 -17.21875 10.242188 -16.878906 9.453125 -16.203125 C 8.660156 -15.535156 8.171875 -14.585938 7.984375 -13.359375 Z M 16.578125 -13.359375 "/></g></g><g style="fill:#efeeeb;fill-opacity:1;"><g transform="translate(346.863174, 257.852268)"><path style="stroke:none" d="M 11.59375 0.328125 C 9.644531 0.328125 7.90625 -0.00390625 6.375 -0.671875 C 4.851562 -1.347656 3.648438 -2.265625 2.765625 -3.421875 C 1.878906 -4.585938 1.382812 -5.894531 1.28125 -7.34375 L 8.0625 -7.34375 C 8.144531 -6.5625 8.503906 -5.929688 9.140625 -5.453125 C 9.785156 -4.972656 10.578125 -4.734375 11.515625 -4.734375 C 12.367188 -4.734375 13.03125 -4.898438 13.5 -5.234375 C 13.96875 -5.566406 14.203125 -6.003906 14.203125 -6.546875 C 14.203125 -7.179688 13.867188 -7.648438 13.203125 -7.953125 C 12.535156 -8.265625 11.453125 -8.609375 9.953125 -8.984375 C 8.347656 -9.359375 7.007812 -9.753906 5.9375 -10.171875 C 4.863281 -10.585938 3.9375 -11.242188 3.15625 -12.140625 C 2.382812 -13.035156 2 -14.242188 2 -15.765625 C 2 -17.046875 2.351562 -18.210938 3.0625 -19.265625 C 3.78125 -20.328125 4.828125 -21.164062 6.203125 -21.78125 C 7.578125 -22.394531 9.210938 -22.703125 11.109375 -22.703125 C 13.921875 -22.703125 16.132812 -22.003906 17.75 -20.609375 C 19.375 -19.222656 20.304688 -17.382812 20.546875 -15.09375 L 14.203125 -15.09375 C 14.097656 -15.863281 13.753906 -16.472656 13.171875 -16.921875 C 12.597656 -17.378906 11.84375 -17.609375 10.90625 -17.609375 C 10.101562 -17.609375 9.488281 -17.453125 9.0625 -17.140625 C 8.632812 -16.835938 8.421875 -16.421875 8.421875 -15.890625 C 8.421875 -15.242188 8.757812 -14.757812 9.4375 -14.4375 C 10.125 -14.125 11.191406 -13.804688 12.640625 -13.484375 C 14.296875 -13.054688 15.644531 -12.632812 16.6875 -12.21875 C 17.726562 -11.800781 18.644531 -11.128906 19.4375 -10.203125 C 20.226562 -9.285156 20.640625 -8.050781 20.671875 -6.5 C 20.671875 -5.1875 20.300781 -4.015625 19.5625 -2.984375 C 18.820312 -1.953125 17.765625 -1.140625 16.390625 -0.546875 C 15.015625 0.0351562 13.414062 0.328125 11.59375 0.328125 Z M 11.59375 0.328125 "/></g></g><g style="fill:#efeeeb;fill-opacity:1;"><g transform="translate(369.254445, 257.852268)"><path style="stroke:none" d="M 14.96875 -5.8125 L 14.96875 0 L 11.46875 0 C 8.988281 0 7.050781 -0.609375 5.65625 -1.828125 C 4.269531 -3.046875 3.578125 -5.03125 3.578125 -7.78125 L 3.578125 -16.6875 L 0.84375 -16.6875 L 0.84375 -22.390625 L 3.578125 -22.390625 L 3.578125 -27.84375 L 10.4375 -27.84375 L 10.4375 -22.390625 L 14.921875 -22.390625 L 14.921875 -16.6875 L 10.4375 -16.6875 L 10.4375 -7.703125 C 10.4375 -7.035156 10.59375 -6.550781 10.90625 -6.25 C 11.226562 -5.957031 11.765625 -5.8125 12.515625 -5.8125 Z M 14.96875 -5.8125 "/></g></g><g style="fill:#efeeeb;fill-opacity:1;"><g transform="translate(385.5463, 257.852268)"><path style="stroke:none" d="M 1.125 -11.234375 C 1.125 -13.535156 1.554688 -15.554688 2.421875 -17.296875 C 3.296875 -19.035156 4.476562 -20.367188 5.96875 -21.296875 C 7.46875 -22.234375 9.144531 -22.703125 11 -22.703125 C 12.570312 -22.703125 13.953125 -22.378906 15.140625 -21.734375 C 16.335938 -21.097656 17.253906 -20.257812 17.890625 -19.21875 L 17.890625 -22.390625 L 24.75 -22.390625 L 24.75 0 L 17.890625 0 L 17.890625 -3.171875 C 17.222656 -2.128906 16.296875 -1.285156 15.109375 -0.640625 C 13.921875 0.00390625 12.535156 0.328125 10.953125 0.328125 C 9.128906 0.328125 7.46875 -0.144531 5.96875 -1.09375 C 4.476562 -2.050781 3.296875 -3.40625 2.421875 -5.15625 C 1.554688 -6.90625 1.125 -8.929688 1.125 -11.234375 Z M 17.890625 -11.1875 C 17.890625 -12.90625 17.414062 -14.257812 16.46875 -15.25 C 15.519531 -16.238281 14.363281 -16.734375 13 -16.734375 C 11.632812 -16.734375 10.476562 -16.242188 9.53125 -15.265625 C 8.582031 -14.285156 8.109375 -12.941406 8.109375 -11.234375 C 8.109375 -9.523438 8.582031 -8.164062 9.53125 -7.15625 C 10.476562 -6.15625 11.632812 -5.65625 13 -5.65625 C 14.363281 -5.65625 15.519531 -6.148438 16.46875 -7.140625 C 17.414062 -8.128906 17.890625 -9.476562 17.890625 -11.1875 Z M 17.890625 -11.1875 "/></g></g><g style="fill:#efeeeb;fill-opacity:1;"><g transform="translate(412.793018, 257.852268)"><path style="stroke:none" d="M 14.96875 -5.8125 L 14.96875 0 L 11.46875 0 C 8.988281 0 7.050781 -0.609375 5.65625 -1.828125 C 4.269531 -3.046875 3.578125 -5.03125 3.578125 -7.78125 L 3.578125 -16.6875 L 0.84375 -16.6875 L 0.84375 -22.390625 L 3.578125 -22.390625 L 3.578125 -27.84375 L 10.4375 -27.84375 L 10.4375 -22.390625 L 14.921875 -22.390625 L 14.921875 -16.6875 L 10.4375 -16.6875 L 10.4375 -7.703125 C 10.4375 -7.035156 10.59375 -6.550781 10.90625 -6.25 C 11.226562 -5.957031 11.765625 -5.8125 12.515625 -5.8125 Z M 14.96875 -5.8125 "/></g></g><g style="fill:#efeeeb;fill-opacity:1;"><g transform="translate(429.084862, 257.852268)"><path style="stroke:none" d="M 23.59375 -11.5625 C 23.59375 -10.914062 23.550781 -10.242188 23.46875 -9.546875 L 7.9375 -9.546875 C 8.050781 -8.160156 8.5 -7.097656 9.28125 -6.359375 C 10.070312 -5.617188 11.046875 -5.25 12.203125 -5.25 C 13.910156 -5.25 15.097656 -5.972656 15.765625 -7.421875 L 23.078125 -7.421875 C 22.703125 -5.953125 22.023438 -4.628906 21.046875 -3.453125 C 20.066406 -2.273438 18.84375 -1.347656 17.375 -0.671875 C 15.90625 -0.00390625 14.257812 0.328125 12.4375 0.328125 C 10.25 0.328125 8.296875 -0.140625 6.578125 -1.078125 C 4.867188 -2.015625 3.53125 -3.351562 2.5625 -5.09375 C 1.601562 -6.832031 1.125 -8.863281 1.125 -11.1875 C 1.125 -13.519531 1.597656 -15.554688 2.546875 -17.296875 C 3.492188 -19.035156 4.820312 -20.367188 6.53125 -21.296875 C 8.25 -22.234375 10.21875 -22.703125 12.4375 -22.703125 C 14.601562 -22.703125 16.53125 -22.25 18.21875 -21.34375 C 19.90625 -20.4375 21.222656 -19.140625 22.171875 -17.453125 C 23.117188 -15.765625 23.59375 -13.800781 23.59375 -11.5625 Z M 16.578125 -13.359375 C 16.578125 -14.535156 16.175781 -15.472656 15.375 -16.171875 C 14.570312 -16.867188 13.566406 -17.21875 12.359375 -17.21875 C 11.210938 -17.21875 10.242188 -16.878906 9.453125 -16.203125 C 8.660156 -15.535156 8.171875 -14.585938 7.984375 -13.359375 Z M 16.578125 -13.359375 "/></g></g><path style="fill:none;stroke-width:32;stroke-linecap:butt;stroke-linejoin:miter;stroke:#5170ff;stroke-opacity:1;stroke-miterlimit:4;" d="M 0.00156672 15.997912 L 508.950781 16.001069 " transform="matrix(0.74999,-0.00378849,0.00378849,0.74999,471.66478,234.236101)"/></g></svg>